<?xml version="1.0" encoding="UTF-8"?>
<!DOCTYPE svg PUBLIC "-//W3C//DTD SVG 1.1//EN" "http://www.w3.org/Graphics/SVG/1.1/DTD/svg11.dtd">
<svg xmlns="http://www.w3.org/2000/svg" version="1.1" width="1748px" height="1240px" style="shape-rendering:geometricPrecision; text-rendering:geometricPrecision; image-rendering:optimizeQuality; fill-rule:evenodd; clip-rule:evenodd" xmlns:xlink="http://www.w3.org/1999/xlink">
<g><path style="opacity:1" fill="#000000" d="M -0.5,-0.5 C 582.167,-0.5 1164.83,-0.5 1747.5,-0.5C 1747.5,412.833 1747.5,826.167 1747.5,1239.5C 1164.83,1239.5 582.167,1239.5 -0.5,1239.5C -0.5,826.167 -0.5,412.833 -0.5,-0.5 Z"/></g>
<g><path style="opacity:1" fill="#fefefe" d="M 694.5,173.5 C 704.833,173.5 715.167,173.5 725.5,173.5C 725.5,363.167 725.5,552.833 725.5,742.5C 715.167,742.5 704.833,742.5 694.5,742.5C 694.5,552.833 694.5,363.167 694.5,173.5 Z"/></g>
<g><path style="opacity:1" fill="#afafaf" d="M 930.5,742.5 C 930.5,553.167 930.5,363.833 930.5,174.5C 920.5,174.5 910.5,174.5 900.5,174.5C 900.5,363.833 900.5,553.167 900.5,742.5C 899.5,553.001 899.167,363.334 899.5,173.5C 910.167,173.5 920.833,173.5 931.5,173.5C 931.833,363.334 931.5,553.001 930.5,742.5 Z"/></g>
<g><path style="opacity:1" fill="#fefffe" d="M 930.5,742.5 C 920.5,742.5 910.5,742.5 900.5,742.5C 900.5,553.167 900.5,363.833 900.5,174.5C 910.5,174.5 920.5,174.5 930.5,174.5C 930.5,363.833 930.5,553.167 930.5,742.5 Z"/></g>
<g><path style="opacity:1" fill="#fefefe" d="M 652.5,435.5 C 652.832,493.002 652.499,550.336 651.5,607.5C 617.895,539.289 584.561,470.956 551.5,402.5C 551.44,401.957 551.107,401.624 550.5,401.5C 549.5,485.497 549.167,569.497 549.5,653.5C 549.44,658.061 547.107,660.561 542.5,661C 519.833,661.667 497.167,661.667 474.5,661C 471,660.167 468.833,658 468,654.5C 467.333,505.167 467.333,355.833 468,206.5C 469.251,203.619 471.417,201.786 474.5,201C 494.167,200.333 513.833,200.333 533.5,201C 536.102,201.883 538.269,203.383 540,205.5C 577.789,282.077 615.289,358.743 652.5,435.5 Z"/></g>
<g><path style="opacity:1" fill="#fe3030" d="M 767.5,207.5 C 797.833,207.5 828.167,207.5 858.5,207.5C 858.5,235.833 858.5,264.167 858.5,292.5C 828.167,292.5 797.833,292.5 767.5,292.5C 767.5,264.167 767.5,235.833 767.5,207.5 Z"/></g>
<g><path style="opacity:1" fill="#fefefe" d="M 972.5,210.5 C 1002.19,210.135 1031.85,210.635 1061.5,212C 1103.36,219.523 1127.19,244.356 1133,286.5C 1133.67,309.167 1133.67,331.833 1133,354.5C 1132.53,355.931 1131.7,357.097 1130.5,358C 1104.23,359.64 1077.9,359.973 1051.5,359C 1049.67,357.833 1048.17,356.333 1047,354.5C 1046.67,341.5 1046.33,328.5 1046,315.5C 1044.04,303.874 1037.21,297.374 1025.5,296C 1007.81,295.222 990.142,295.388 972.5,296.5C 972.5,267.833 972.5,239.167 972.5,210.5 Z"/></g>
<g><path style="opacity:1" fill="#a21e1e" d="M 767.5,207.5 C 767.5,235.833 767.5,264.167 767.5,292.5C 797.833,292.5 828.167,292.5 858.5,292.5C 828.005,293.498 797.338,293.831 766.5,293.5C 766.169,264.662 766.502,235.995 767.5,207.5 Z"/></g>
<g><path style="opacity:1" fill="#fefefe" d="M 972.5,382.5 C 1023.32,398.83 1073.99,415.663 1124.5,433C 1129.24,436.313 1132.07,440.813 1133,446.5C 1133.67,496.167 1133.67,545.833 1133,595.5C 1126.6,641.229 1100.44,666.729 1054.5,672C 1026.17,672.5 997.835,672.667 969.5,672.5C 970.882,665.92 971.716,659.253 972,652.5C 972.5,630.836 972.667,609.169 972.5,587.5C 990.469,588.627 1008.47,588.793 1026.5,588C 1038.54,585.954 1045.04,578.787 1046,566.5C 1046.5,542.836 1046.67,519.169 1046.5,495.5C 1021.84,487.836 997.178,480.169 972.5,472.5C 972.5,442.5 972.5,412.5 972.5,382.5 Z"/></g>
<g><path style="opacity:1" fill="#fe3030" d="M 767.5,392.5 C 797.833,392.5 828.167,392.5 858.5,392.5C 858.5,420.833 858.5,449.167 858.5,477.5C 828.167,477.5 797.833,477.5 767.5,477.5C 767.5,449.167 767.5,420.833 767.5,392.5 Z"/></g>
<g><path style="opacity:1" fill="#e8e8e8" d="M 551.5,402.5 C 550.833,486.167 550.167,569.833 549.5,653.5C 549.167,569.497 549.5,485.497 550.5,401.5C 551.107,401.624 551.44,401.957 551.5,402.5 Z"/></g>
<g><path style="opacity:1" fill="#636363" d="M 652.5,435.5 C 653.665,493.332 653.832,551.332 653,609.5C 652.283,608.956 651.783,608.289 651.5,607.5C 652.499,550.336 652.832,493.002 652.5,435.5 Z"/></g>
<g><path style="opacity:1" fill="#761616" d="M 858.5,573.5 C 828.167,573.5 797.833,573.5 767.5,573.5C 767.831,600.005 767.498,626.339 766.5,652.5C 766.5,625.833 766.5,599.167 766.5,572.5C 797.338,572.169 828.005,572.502 858.5,573.5 Z"/></g>
<g><path style="opacity:1" fill="#fe3030" d="M 858.5,573.5 C 858.5,600.167 858.5,626.833 858.5,653.5C 858.5,654.833 858.5,656.167 858.5,657.5C 827.833,657.5 797.167,657.5 766.5,657.5C 766.5,655.833 766.5,654.167 766.5,652.5C 767.498,626.339 767.831,600.005 767.5,573.5C 797.833,573.5 828.167,573.5 858.5,573.5 Z"/></g>
<g><path style="opacity:1" fill="#7c1717" d="M 858.5,653.5 C 859.451,654.919 859.784,656.585 859.5,658.5C 828.329,658.831 797.329,658.498 766.5,657.5C 797.167,657.5 827.833,657.5 858.5,657.5C 858.5,656.167 858.5,654.833 858.5,653.5 Z"/></g>
<g><path style="opacity:1" fill="#fafafa" d="M 956.5,791.5 C 963.5,791.5 970.5,791.5 977.5,791.5C 977.5,797.833 977.5,804.167 977.5,810.5C 976.582,818.102 977.916,818.935 981.5,813C 990.186,808.847 998.02,810.014 1005,816.5C 1005.97,818.392 1006.64,820.392 1007,822.5C 1007.33,832.833 1007.67,843.167 1008,853.5C 1009.44,855.155 1011.28,855.822 1013.5,855.5C 1013.5,857.167 1013.5,858.833 1013.5,860.5C 1006.83,860.5 1000.17,860.5 993.5,860.5C 993.667,848.495 993.5,836.495 993,824.5C 991.542,818.941 988.042,817.108 982.5,819C 980.951,820.214 979.785,821.714 979,823.5C 978.333,833.5 978.333,843.5 979,853.5C 980.444,855.155 982.278,855.822 984.5,855.5C 984.5,857.167 984.5,858.833 984.5,860.5C 975.167,860.5 965.833,860.5 956.5,860.5C 956.5,858.833 956.5,857.167 956.5,855.5C 960.182,856.275 962.682,854.941 964,851.5C 964.667,834.167 964.667,816.833 964,799.5C 962.461,796.479 959.961,795.146 956.5,795.5C 956.5,794.167 956.5,792.833 956.5,791.5 Z"/></g>
<g><path style="opacity:1" fill="#848484" d="M 956.5,791.5 C 963.648,790.508 970.981,790.175 978.5,790.5C 978.824,797.354 978.491,804.021 977.5,810.5C 977.5,804.167 977.5,797.833 977.5,791.5C 970.5,791.5 963.5,791.5 956.5,791.5 Z"/></g>
<g><path style="opacity:1" fill="#fb3030" d="M 811.5,865.5 C 811.5,863.833 811.5,862.167 811.5,860.5C 813.735,860.795 815.735,860.461 817.5,859.5C 818.79,858.942 819.623,857.942 820,856.5C 820.667,838.167 820.667,819.833 820,801.5C 819.5,800.333 818.667,799.5 817.5,799C 815.19,798.503 812.857,798.337 810.5,798.5C 810.5,796.833 810.5,795.167 810.5,793.5C 829.5,793.5 848.5,793.5 867.5,793.5C 867.5,799.5 867.5,805.5 867.5,811.5C 865.076,811.808 862.743,811.474 860.5,810.5C 859.77,807.891 859.27,805.224 859,802.5C 858.167,801.667 857.333,800.833 856.5,800C 849.842,799.5 843.175,799.334 836.5,799.5C 836.5,807.833 836.5,816.167 836.5,824.5C 844.5,824.5 852.5,824.5 860.5,824.5C 860.5,826.5 860.5,828.5 860.5,830.5C 852.5,830.5 844.5,830.5 836.5,830.5C 836.5,840.167 836.5,849.833 836.5,859.5C 843.841,859.666 851.174,859.5 858.5,859C 860.333,858.5 861.5,857.333 862,855.5C 863.149,852.607 863.649,849.607 863.5,846.5C 865.833,846.5 868.167,846.5 870.5,846.5C 870.5,852.833 870.5,859.167 870.5,865.5C 850.833,865.5 831.167,865.5 811.5,865.5 Z"/></g>
<g><path style="opacity:1" fill="#f7f7f7" d="M 920.5,794.5 C 926.176,794.334 931.843,794.501 937.5,795C 940.656,795.937 943.489,797.437 946,799.5C 949.229,808.354 946.062,812.687 936.5,812.5C 936.309,802.481 931.309,798.648 921.5,801C 916.143,806.592 916.476,811.925 922.5,817C 930.782,820.419 938.615,824.586 946,829.5C 954.113,845.781 949.28,856.281 931.5,861C 921.166,863.378 912.332,860.878 905,853.5C 902.698,844.986 905.864,840.653 914.5,840.5C 915.657,854.491 922.657,858.658 935.5,853C 940.043,846.711 939.043,841.378 932.5,837C 926.046,834.273 919.712,831.273 913.5,828C 901.098,813.694 903.431,802.527 920.5,794.5 Z"/></g>
<g><path style="opacity:1" fill="#f8f8f8" d="M 447.5,796.5 C 453.842,796.334 460.175,796.5 466.5,797C 476.211,810.921 486.044,824.755 496,838.5C 496.667,826.833 496.667,815.167 496,803.5C 493.865,801.722 491.365,801.055 488.5,801.5C 488.5,799.833 488.5,798.167 488.5,796.5C 495.833,796.5 503.167,796.5 510.5,796.5C 510.5,798.167 510.5,799.833 510.5,801.5C 507.635,801.055 505.135,801.722 503,803.5C 502.5,821.497 502.333,839.497 502.5,857.5C 498.993,858.006 495.826,857.34 493,855.5C 483.056,840.556 472.722,825.89 462,811.5C 461.333,824.5 461.333,837.5 462,850.5C 464.106,852.291 466.606,852.958 469.5,852.5C 469.5,854.167 469.5,855.833 469.5,857.5C 462.167,857.5 454.833,857.5 447.5,857.5C 447.5,855.833 447.5,854.167 447.5,852.5C 450.365,852.945 452.865,852.278 455,850.5C 455.667,834.833 455.667,819.167 455,803.5C 452.865,801.722 450.365,801.055 447.5,801.5C 447.5,799.833 447.5,798.167 447.5,796.5 Z"/></g>
<g><path style="opacity:1" fill="#f8f8f8" d="M 1035.5,810.5 C 1060.31,808.478 1070.81,819.811 1067,844.5C 1063.9,856.261 1056.23,861.928 1044,861.5C 1027.66,860.657 1019.83,851.99 1020.5,835.5C 1019.67,823.47 1024.67,815.137 1035.5,810.5 Z"/></g>
<g><path style="opacity:1" fill="#f5f5f5" d="M 532.5,810.5 C 545.242,808.946 554.075,813.946 559,825.5C 562.378,853.136 550.878,862.969 524.5,855C 516.865,847.422 514.032,838.256 516,827.5C 518.349,818.652 523.849,812.986 532.5,810.5 Z"/></g>
<g><path style="opacity:1" fill="#828282" d="M 583.5,812.5 C 577.833,812.5 572.167,812.5 566.5,812.5C 566.5,813.833 566.5,815.167 566.5,816.5C 565.549,815.081 565.216,813.415 565.5,811.5C 571.69,811.177 577.69,811.51 583.5,812.5 Z"/></g>
<g><path style="opacity:1" fill="#f9f9f9" d="M 566.5,816.5 C 566.5,815.167 566.5,813.833 566.5,812.5C 572.167,812.5 577.833,812.5 583.5,812.5C 584.302,813.952 584.802,815.618 585,817.5C 593.814,808.288 602.647,808.288 611.5,817.5C 612.998,815.171 614.998,813.337 617.5,812C 622.949,811.104 628.282,811.437 633.5,813C 636.467,815.1 638.3,817.934 639,821.5C 639.333,831.167 639.667,840.833 640,850.5C 641.401,852.192 643.234,852.859 645.5,852.5C 645.5,854.167 645.5,855.833 645.5,857.5C 639.167,857.5 632.833,857.5 626.5,857.5C 626.667,846.162 626.5,834.828 626,823.5C 624.336,818.962 621.169,817.462 616.5,819C 614.951,820.214 613.785,821.714 613,823.5C 612.333,832.833 612.333,842.167 613,851.5C 614.699,852.406 616.533,852.739 618.5,852.5C 618.5,854.167 618.5,855.833 618.5,857.5C 612.167,857.5 605.833,857.5 599.5,857.5C 599.667,846.162 599.5,834.828 599,823.5C 594.667,816.833 590.333,816.833 586,823.5C 585.333,832.833 585.333,842.167 586,851.5C 587.699,852.406 589.533,852.739 591.5,852.5C 591.5,854.167 591.5,855.833 591.5,857.5C 582.833,857.5 574.167,857.5 565.5,857.5C 565.5,855.833 565.5,854.167 565.5,852.5C 568.547,853.145 570.713,852.145 572,849.5C 572.667,839.167 572.667,828.833 572,818.5C 570.556,816.845 568.722,816.178 566.5,816.5 Z"/></g>
<g><path style="opacity:1" fill="#f5f5f5" d="M 667.5,810.5 C 675.253,809.587 682.087,811.587 688,816.5C 688.667,817.833 689.333,819.167 690,820.5C 690.333,830.833 690.667,841.167 691,851.5C 692.356,852.38 693.856,852.714 695.5,852.5C 695.5,854.167 695.5,855.833 695.5,857.5C 690.167,857.5 684.833,857.5 679.5,857.5C 679.617,855.516 678.95,853.85 677.5,852.5C 669.916,860.031 662.083,860.364 654,853.5C 648.245,842.181 651.411,834.681 663.5,831C 668.155,830.501 672.821,830.334 677.5,830.5C 677.665,826.818 677.499,823.152 677,819.5C 673.667,815.5 670.333,815.5 667,819.5C 666.505,821.473 666.338,823.473 666.5,825.5C 663.393,825.649 660.393,825.149 657.5,824C 653.928,821.374 653.595,818.374 656.5,815C 659.979,812.791 663.646,811.291 667.5,810.5 Z"/></g>
<g><path style="opacity:1" fill="#f8f8f8" d="M 722.5,852.5 C 723.209,853.404 724.209,853.737 725.5,853.5C 725.5,854.833 725.5,856.167 725.5,857.5C 717.167,857.5 708.833,857.5 700.5,857.5C 700.5,856.167 700.5,854.833 700.5,853.5C 701.791,853.737 702.791,853.404 703.5,852.5C 704.458,852.047 705.292,851.381 706,850.5C 706.667,839.833 706.667,829.167 706,818.5C 704.416,817.139 702.582,816.472 700.5,816.5C 700.5,814.833 700.5,813.167 700.5,811.5C 706.5,811.5 712.5,811.5 718.5,811.5C 718.181,813.75 718.681,815.75 720,817.5C 721.167,815 723,813.167 725.5,812C 731.706,810.755 737.539,811.588 743,814.5C 744,816.167 745,817.833 746,819.5C 746.333,829.833 746.667,840.167 747,850.5C 748.444,852.155 750.278,852.822 752.5,852.5C 752.5,854.167 752.5,855.833 752.5,857.5C 746.167,857.5 739.833,857.5 733.5,857.5C 733.667,845.829 733.5,834.162 733,822.5C 730.947,818.708 727.781,817.542 723.5,819C 721.683,820.8 720.516,822.966 720,825.5C 719.333,833.833 719.333,842.167 720,850.5C 720.708,851.381 721.542,852.047 722.5,852.5 Z"/></g>
<g><path style="opacity:1" fill="#818181" d="M 778.5,816.5 C 778.5,815.167 778.5,813.833 778.5,812.5C 770.833,812.5 763.167,812.5 755.5,812.5C 755.365,814.554 756.032,816.221 757.5,817.5C 756.5,817.5 755.5,817.5 754.5,817.5C 754.5,815.5 754.5,813.5 754.5,811.5C 762.833,811.5 771.167,811.5 779.5,811.5C 779.784,813.415 779.451,815.081 778.5,816.5 Z"/></g>
<g><path style="opacity:1" fill="#838383" d="M 785.5,812.5 C 791.645,811.51 797.978,811.177 804.5,811.5C 804.784,813.415 804.451,815.081 803.5,816.5C 803.5,815.167 803.5,813.833 803.5,812.5C 797.5,812.5 791.5,812.5 785.5,812.5 Z"/></g>
<g><path style="opacity:1" fill="#f8f8f8" d="M 1102.5,810.5 C 1119.91,809.582 1127.91,817.915 1126.5,835.5C 1127.31,844.577 1124.64,852.41 1118.5,859C 1109.73,863.311 1101.9,862.145 1095,855.5C 1094.33,861.5 1094.33,867.5 1095,873.5C 1096.68,877.051 1099.51,878.384 1103.5,877.5C 1103.5,879.167 1103.5,880.833 1103.5,882.5C 1093.5,882.5 1083.5,882.5 1073.5,882.5C 1073.5,880.833 1073.5,879.167 1073.5,877.5C 1076.37,877.915 1078.53,876.915 1080,874.5C 1080.67,855.833 1080.67,837.167 1080,818.5C 1078.21,816.771 1076.04,816.104 1073.5,816.5C 1073.5,814.833 1073.5,813.167 1073.5,811.5C 1079.83,811.5 1086.17,811.5 1092.5,811.5C 1092.3,813.989 1092.8,816.323 1094,818.5C 1096.07,814.923 1098.91,812.256 1102.5,810.5 Z"/></g>
<g><path style="opacity:1" fill="#f7f7f7" d="M 778.5,816.5 C 775.873,816.293 774.207,817.46 773.5,820C 777.084,828.336 780.25,836.836 783,845.5C 785.736,837.124 788.57,828.791 791.5,820.5C 790.531,817.013 788.198,815.68 784.5,816.5C 784.232,814.901 784.566,813.568 785.5,812.5C 791.5,812.5 797.5,812.5 803.5,812.5C 803.5,813.833 803.5,815.167 803.5,816.5C 800.178,817.658 798.012,819.992 797,823.5C 791.278,839.277 785.278,854.944 779,870.5C 773.25,876.873 766.083,879.207 757.5,877.5C 757.5,875.833 757.5,874.167 757.5,872.5C 767.492,872.679 773.492,867.845 775.5,858C 771.533,847.102 767.367,836.269 763,825.5C 761.884,822.244 760.051,819.578 757.5,817.5C 756.032,816.221 755.365,814.554 755.5,812.5C 763.167,812.5 770.833,812.5 778.5,812.5C 778.5,813.833 778.5,815.167 778.5,816.5 Z"/></g>
<g><path style="opacity:1" fill="#040404" d="M 534.5,816.5 C 540.862,815.594 544.695,818.26 546,824.5C 546.812,832.222 546.478,839.889 545,847.5C 542.087,852.689 537.92,853.856 532.5,851C 531.137,849.055 530.303,846.888 530,844.5C 529.333,837.167 529.333,829.833 530,822.5C 531.332,820.34 532.832,818.34 534.5,816.5 Z"/></g>
<g><path style="opacity:1" fill="#040404" d="M 1040.5,816.5 C 1047.77,815.217 1051.94,818.217 1053,825.5C 1053.81,833.222 1053.48,840.889 1052,848.5C 1048.42,856.536 1043.42,857.536 1037,851.5C 1033.39,840.307 1033.73,829.307 1038,818.5C 1038.99,817.934 1039.83,817.267 1040.5,816.5 Z"/></g>
<g><path style="opacity:1" fill="#070707" d="M 1100.5,817.5 C 1107.38,816.545 1111.22,819.545 1112,826.5C 1113.01,834.983 1112.34,843.316 1110,851.5C 1106.63,854.886 1102.79,855.386 1098.5,853C 1096.95,850.345 1095.78,847.512 1095,844.5C 1094.33,838.5 1094.33,832.5 1095,826.5C 1095.84,822.843 1097.67,819.843 1100.5,817.5 Z"/></g>
<g><path style="opacity:1" fill="#b4b4b4" d="M 875.5,831.5 C 883.316,830.508 891.316,830.174 899.5,830.5C 899.813,834.042 899.479,837.375 898.5,840.5C 898.5,837.5 898.5,834.5 898.5,831.5C 890.833,831.5 883.167,831.5 875.5,831.5 Z"/></g>
<g><path style="opacity:1" fill="#fbfbfb" d="M 875.5,831.5 C 883.167,831.5 890.833,831.5 898.5,831.5C 898.5,834.5 898.5,837.5 898.5,840.5C 890.833,840.5 883.167,840.5 875.5,840.5C 875.5,837.5 875.5,834.5 875.5,831.5 Z"/></g>
<g><path style="opacity:1" fill="#0f0f0f" d="M 668.5,835.5 C 671.5,835.5 674.5,835.5 677.5,835.5C 678.412,841.324 677.078,846.49 673.5,851C 667.648,853.498 664.648,851.498 664.5,845C 664.339,841.16 665.672,837.994 668.5,835.5 Z"/></g>
<g><path style="opacity:1" fill="#8b8b8b" d="M 703.5,852.5 C 702.791,853.404 701.791,853.737 700.5,853.5C 700.5,854.833 700.5,856.167 700.5,857.5C 699.549,856.081 699.216,854.415 699.5,852.5C 700.833,852.5 702.167,852.5 703.5,852.5 Z"/></g>
<g><path style="opacity:1" fill="#838383" d="M 722.5,852.5 C 723.833,852.5 725.167,852.5 726.5,852.5C 726.784,854.415 726.451,856.081 725.5,857.5C 725.5,856.167 725.5,854.833 725.5,853.5C 724.209,853.737 723.209,853.404 722.5,852.5 Z"/></g>
<g><path style="opacity:1" fill="#921c1c" d="M 817.5,859.5 C 815.735,860.461 813.735,860.795 811.5,860.5C 811.5,862.167 811.5,863.833 811.5,865.5C 810.539,863.735 810.205,861.735 810.5,859.5C 812.833,859.5 815.167,859.5 817.5,859.5 Z"/></g>
</svg>
