<svg xmlns="http://www.w3.org/2000/svg" xmlns:xlink="http://www.w3.org/1999/xlink" width="500" zoomAndPan="magnify" viewBox="0 0 375 374.999991" height="500" preserveAspectRatio="xMidYMid meet" version="1.0"><defs><g/><clipPath id="2b60db20ca"><path d="M 198 53 L 250.484375 53 L 250.484375 115 L 198 115 Z M 198 53 " clip-rule="nonzero"/></clipPath><clipPath id="b673c0117e"><path d="M 198 114 L 250.484375 114 L 250.484375 175 L 198 175 Z M 198 114 " clip-rule="nonzero"/></clipPath><clipPath id="c9967e7237"><path d="M 198 174 L 250.484375 174 L 250.484375 236 L 198 236 Z M 198 174 " clip-rule="nonzero"/></clipPath><clipPath id="24e79540e0"><path d="M 145.484375 83 L 198 83 L 198 145 L 145.484375 145 Z M 145.484375 83 " clip-rule="nonzero"/></clipPath><clipPath id="1a617feef1"><path d="M 145.484375 53 L 198 53 L 198 115 L 145.484375 115 Z M 145.484375 53 " clip-rule="nonzero"/></clipPath><clipPath id="0f867e8e43"><path d="M 145.484375 114 L 198 114 L 198 175 L 145.484375 175 Z M 145.484375 114 " clip-rule="nonzero"/></clipPath><clipPath id="9edcf75169"><path d="M 145.484375 174 L 198 174 L 198 236 L 145.484375 236 Z M 145.484375 174 " clip-rule="nonzero"/></clipPath><clipPath id="fdb76ff12b"><path d="M 198 144 L 250.484375 144 L 250.484375 205 L 198 205 Z M 198 144 " clip-rule="nonzero"/></clipPath></defs><g clip-path="url(#2b60db20ca)"><path fill="#fbccd5" d="M 250.53125 83.863281 L 198.003906 53.625 L 198.003906 114.109375 Z M 250.53125 83.863281 " fill-opacity="1" fill-rule="nonzero"/></g><g clip-path="url(#b673c0117e)"><path fill="#ed2730" d="M 250.53125 144.359375 L 198.003906 114.109375 L 198.003906 174.605469 Z M 250.53125 144.359375 " fill-opacity="1" fill-rule="nonzero"/></g><g clip-path="url(#c9967e7237)"><path fill="#a71c22" d="M 250.53125 204.855469 L 198.003906 174.605469 L 198.003906 235.09375 Z M 250.53125 204.855469 " fill-opacity="1" fill-rule="nonzero"/></g><g clip-path="url(#24e79540e0)"><path fill="#f26279" d="M 197.964844 114.109375 L 145.4375 83.863281 L 145.4375 144.359375 Z M 197.964844 114.109375 " fill-opacity="1" fill-rule="nonzero"/></g><g clip-path="url(#1a617feef1)"><path fill="#f795a6" d="M 145.4375 83.863281 L 197.964844 53.625 L 197.964844 114.109375 Z M 145.4375 83.863281 " fill-opacity="1" fill-rule="nonzero"/></g><g clip-path="url(#0f867e8e43)"><path fill="#f03d4e" d="M 145.4375 144.359375 L 197.964844 114.109375 L 197.964844 174.605469 Z M 145.4375 144.359375 " fill-opacity="1" fill-rule="nonzero"/></g><g clip-path="url(#9edcf75169)"><path fill="#7c161c" d="M 145.4375 204.855469 L 197.964844 174.605469 L 197.964844 235.09375 Z M 145.4375 204.855469 " fill-opacity="1" fill-rule="nonzero"/></g><g clip-path="url(#fdb76ff12b)"><path fill="#d31f26" d="M 198.003906 174.605469 L 250.53125 144.359375 L 250.53125 204.855469 Z M 198.003906 174.605469 " fill-opacity="1" fill-rule="nonzero"/></g><g fill="#050a30" fill-opacity="1"><g transform="translate(51.359669, 263.909615)"><g><path d="M 9.484375 0.359375 C 7.804688 0.359375 6.1875 0.132812 4.625 -0.3125 C 3.0625 -0.769531 1.800781 -1.363281 0.84375 -2.09375 L 2.515625 -5.796875 C 3.421875 -5.128906 4.5 -4.59375 5.75 -4.1875 C 7.007812 -3.78125 8.265625 -3.578125 9.515625 -3.578125 C 10.910156 -3.578125 11.941406 -3.78125 12.609375 -4.1875 C 13.273438 -4.601562 13.609375 -5.15625 13.609375 -5.84375 C 13.609375 -6.351562 13.410156 -6.773438 13.015625 -7.109375 C 12.617188 -7.441406 12.113281 -7.707031 11.5 -7.90625 C 10.882812 -8.113281 10.050781 -8.335938 9 -8.578125 C 7.382812 -8.960938 6.0625 -9.347656 5.03125 -9.734375 C 4 -10.117188 3.113281 -10.734375 2.375 -11.578125 C 1.632812 -12.429688 1.265625 -13.5625 1.265625 -14.96875 C 1.265625 -16.207031 1.597656 -17.328125 2.265625 -18.328125 C 2.941406 -19.328125 3.953125 -20.117188 5.296875 -20.703125 C 6.640625 -21.285156 8.28125 -21.578125 10.21875 -21.578125 C 11.570312 -21.578125 12.894531 -21.414062 14.1875 -21.09375 C 15.476562 -20.769531 16.609375 -20.304688 17.578125 -19.703125 L 16.0625 -15.96875 C 14.101562 -17.082031 12.144531 -17.640625 10.1875 -17.640625 C 8.8125 -17.640625 7.796875 -17.414062 7.140625 -16.96875 C 6.484375 -16.53125 6.15625 -15.945312 6.15625 -15.21875 C 6.15625 -14.488281 6.53125 -13.945312 7.28125 -13.59375 C 8.039062 -13.238281 9.203125 -12.890625 10.765625 -12.546875 C 12.378906 -12.160156 13.703125 -11.773438 14.734375 -11.390625 C 15.765625 -11.015625 16.644531 -10.410156 17.375 -9.578125 C 18.113281 -8.753906 18.484375 -7.632812 18.484375 -6.21875 C 18.484375 -5 18.144531 -3.890625 17.46875 -2.890625 C 16.789062 -1.890625 15.773438 -1.097656 14.421875 -0.515625 C 13.066406 0.0664062 11.421875 0.359375 9.484375 0.359375 Z M 9.484375 0.359375 "/></g></g></g><g fill="#050a30" fill-opacity="1"><g transform="translate(76.697621, 263.909615)"><g><path d="M 21.984375 -21.21875 L 21.984375 0 L 17.0625 0 L 17.0625 -8.703125 L 7.421875 -8.703125 L 7.421875 0 L 2.515625 0 L 2.515625 -21.21875 L 7.421875 -21.21875 L 7.421875 -12.859375 L 17.0625 -12.859375 L 17.0625 -21.21875 Z M 21.984375 -21.21875 "/></g></g></g><g fill="#050a30" fill-opacity="1"><g transform="translate(107.187372, 263.909615)"><g><path d="M 12.796875 0.359375 C 10.585938 0.359375 8.597656 -0.113281 6.828125 -1.0625 C 5.066406 -2.007812 3.6875 -3.316406 2.6875 -4.984375 C 1.6875 -6.648438 1.1875 -8.523438 1.1875 -10.609375 C 1.1875 -12.691406 1.6875 -14.566406 2.6875 -16.234375 C 3.6875 -17.898438 5.066406 -19.207031 6.828125 -20.15625 C 8.597656 -21.101562 10.585938 -21.578125 12.796875 -21.578125 C 14.992188 -21.578125 16.972656 -21.101562 18.734375 -20.15625 C 20.492188 -19.207031 21.878906 -17.898438 22.890625 -16.234375 C 23.898438 -14.566406 24.40625 -12.691406 24.40625 -10.609375 C 24.40625 -8.523438 23.898438 -6.648438 22.890625 -4.984375 C 21.878906 -3.316406 20.492188 -2.007812 18.734375 -1.0625 C 16.972656 -0.113281 14.992188 0.359375 12.796875 0.359375 Z M 12.796875 -3.8125 C 14.046875 -3.8125 15.175781 -4.097656 16.1875 -4.671875 C 17.195312 -5.253906 17.988281 -6.0625 18.5625 -7.09375 C 19.144531 -8.125 19.4375 -9.296875 19.4375 -10.609375 C 19.4375 -11.921875 19.144531 -13.09375 18.5625 -14.125 C 17.988281 -15.15625 17.195312 -15.957031 16.1875 -16.53125 C 15.175781 -17.113281 14.046875 -17.40625 12.796875 -17.40625 C 11.535156 -17.40625 10.398438 -17.113281 9.390625 -16.53125 C 8.378906 -15.957031 7.585938 -15.15625 7.015625 -14.125 C 6.441406 -13.09375 6.15625 -11.921875 6.15625 -10.609375 C 6.15625 -9.296875 6.441406 -8.125 7.015625 -7.09375 C 7.585938 -6.0625 8.378906 -5.253906 9.390625 -4.671875 C 10.398438 -4.097656 11.535156 -3.8125 12.796875 -3.8125 Z M 12.796875 -3.8125 "/></g></g></g><g fill="#050a30" fill-opacity="1"><g transform="translate(138.768091, 263.909615)"><g><path d="M 11.703125 -21.21875 C 13.578125 -21.21875 15.207031 -20.90625 16.59375 -20.28125 C 17.976562 -19.65625 19.046875 -18.765625 19.796875 -17.609375 C 20.546875 -16.460938 20.921875 -15.097656 20.921875 -13.515625 C 20.921875 -11.960938 20.546875 -10.601562 19.796875 -9.4375 C 19.046875 -8.28125 17.976562 -7.390625 16.59375 -6.765625 C 15.207031 -6.148438 13.578125 -5.84375 11.703125 -5.84375 L 7.421875 -5.84375 L 7.421875 0 L 2.515625 0 L 2.515625 -21.21875 Z M 11.421875 -9.859375 C 12.898438 -9.859375 14.019531 -10.175781 14.78125 -10.8125 C 15.550781 -11.445312 15.9375 -12.347656 15.9375 -13.515625 C 15.9375 -14.710938 15.550781 -15.628906 14.78125 -16.265625 C 14.019531 -16.898438 12.898438 -17.21875 11.421875 -17.21875 L 7.421875 -17.21875 L 7.421875 -9.859375 Z M 11.421875 -9.859375 "/></g></g></g><g fill="#050a30" fill-opacity="1"><g transform="translate(166.954682, 263.909615)"><g><path d="M 9.484375 0.359375 C 7.804688 0.359375 6.1875 0.132812 4.625 -0.3125 C 3.0625 -0.769531 1.800781 -1.363281 0.84375 -2.09375 L 2.515625 -5.796875 C 3.421875 -5.128906 4.5 -4.59375 5.75 -4.1875 C 7.007812 -3.78125 8.265625 -3.578125 9.515625 -3.578125 C 10.910156 -3.578125 11.941406 -3.78125 12.609375 -4.1875 C 13.273438 -4.601562 13.609375 -5.15625 13.609375 -5.84375 C 13.609375 -6.351562 13.410156 -6.773438 13.015625 -7.109375 C 12.617188 -7.441406 12.113281 -7.707031 11.5 -7.90625 C 10.882812 -8.113281 10.050781 -8.335938 9 -8.578125 C 7.382812 -8.960938 6.0625 -9.347656 5.03125 -9.734375 C 4 -10.117188 3.113281 -10.734375 2.375 -11.578125 C 1.632812 -12.429688 1.265625 -13.5625 1.265625 -14.96875 C 1.265625 -16.207031 1.597656 -17.328125 2.265625 -18.328125 C 2.941406 -19.328125 3.953125 -20.117188 5.296875 -20.703125 C 6.640625 -21.285156 8.28125 -21.578125 10.21875 -21.578125 C 11.570312 -21.578125 12.894531 -21.414062 14.1875 -21.09375 C 15.476562 -20.769531 16.609375 -20.304688 17.578125 -19.703125 L 16.0625 -15.96875 C 14.101562 -17.082031 12.144531 -17.640625 10.1875 -17.640625 C 8.8125 -17.640625 7.796875 -17.414062 7.140625 -16.96875 C 6.484375 -16.53125 6.15625 -15.945312 6.15625 -15.21875 C 6.15625 -14.488281 6.53125 -13.945312 7.28125 -13.59375 C 8.039062 -13.238281 9.203125 -12.890625 10.765625 -12.546875 C 12.378906 -12.160156 13.703125 -11.773438 14.734375 -11.390625 C 15.765625 -11.015625 16.644531 -10.410156 17.375 -9.578125 C 18.113281 -8.753906 18.484375 -7.632812 18.484375 -6.21875 C 18.484375 -5 18.144531 -3.890625 17.46875 -2.890625 C 16.789062 -1.890625 15.773438 -1.097656 14.421875 -0.515625 C 13.066406 0.0664062 11.421875 0.359375 9.484375 0.359375 Z M 9.484375 0.359375 "/></g></g></g><g fill="#050a30" fill-opacity="1"><g transform="translate(192.292632, 263.909615)"><g><path d="M 34.59375 -21.21875 L 27.640625 0 L 22.375 0 L 17.703125 -14.375 L 12.890625 0 L 7.640625 0 L 0.671875 -21.21875 L 5.765625 -21.21875 L 10.546875 -6.3125 L 15.546875 -21.21875 L 20.09375 -21.21875 L 24.953125 -6.1875 L 29.890625 -21.21875 Z M 34.59375 -21.21875 "/></g></g></g><g fill="#050a30" fill-opacity="1"><g transform="translate(233.540535, 263.909615)"><g><path d="M 2.515625 -21.21875 L 7.421875 -21.21875 L 7.421875 0 L 2.515625 0 Z M 2.515625 -21.21875 "/></g></g></g><g fill="#050a30" fill-opacity="1"><g transform="translate(249.484054, 263.909615)"><g><path d="M 7.421875 -17.28125 L 7.421875 -11.671875 L 17.25 -11.671875 L 17.25 -7.734375 L 7.421875 -7.734375 L 7.421875 0 L 2.515625 0 L 2.515625 -21.21875 L 18.546875 -21.21875 L 18.546875 -17.28125 Z M 7.421875 -17.28125 "/></g></g></g><g fill="#050a30" fill-opacity="1"><g transform="translate(274.852308, 263.909615)"><g><path d="M 6.90625 -17.21875 L 0.125 -17.21875 L 0.125 -21.21875 L 18.609375 -21.21875 L 18.609375 -17.21875 L 11.828125 -17.21875 L 11.828125 0 L 6.90625 0 Z M 6.90625 -17.21875 "/></g></g></g><g fill="#050a30" fill-opacity="1"><g transform="translate(299.584179, 263.909615)"><g><path d="M 2.515625 -21.21875 L 7.421875 -21.21875 L 7.421875 -4 L 18.0625 -4 L 18.0625 0 L 2.515625 0 Z M 2.515625 -21.21875 "/></g></g></g><g fill="#050a30" fill-opacity="1"><g transform="translate(323.891772, 263.909615)"><g><path d="M 12.703125 -7.515625 L 12.703125 0 L 7.796875 0 L 7.796875 -7.578125 L -0.421875 -21.21875 L 4.796875 -21.21875 L 10.453125 -11.796875 L 16.125 -21.21875 L 20.953125 -21.21875 Z M 12.703125 -7.515625 "/></g></g></g><g fill="#050a30" fill-opacity="1"><g transform="translate(78.070755, 279.918385)"><g><path d="M 3.5625 -2.3125 L 3.5625 0 L 2.609375 0 L 2.609375 -2.328125 L -0.03125 -6.6875 L 0.984375 -6.6875 L 3.125 -3.15625 L 5.265625 -6.6875 L 6.21875 -6.6875 Z M 3.5625 -2.3125 "/></g></g></g><g fill="#050a30" fill-opacity="1"><g transform="translate(88.4445, 279.918385)"><g><path d="M 4.015625 0.078125 C 3.335938 0.078125 2.726562 -0.0664062 2.1875 -0.359375 C 1.65625 -0.660156 1.234375 -1.070312 0.921875 -1.59375 C 0.609375 -2.113281 0.453125 -2.695312 0.453125 -3.34375 C 0.453125 -3.988281 0.609375 -4.570312 0.921875 -5.09375 C 1.234375 -5.613281 1.65625 -6.019531 2.1875 -6.3125 C 2.726562 -6.613281 3.335938 -6.765625 4.015625 -6.765625 C 4.679688 -6.765625 5.285156 -6.613281 5.828125 -6.3125 C 6.367188 -6.019531 6.789062 -5.613281 7.09375 -5.09375 C 7.40625 -4.570312 7.5625 -3.988281 7.5625 -3.34375 C 7.5625 -2.695312 7.40625 -2.113281 7.09375 -1.59375 C 6.789062 -1.070312 6.367188 -0.660156 5.828125 -0.359375 C 5.285156 -0.0664062 4.679688 0.078125 4.015625 0.078125 Z M 4.015625 -0.765625 C 4.503906 -0.765625 4.941406 -0.875 5.328125 -1.09375 C 5.722656 -1.320312 6.035156 -1.628906 6.265625 -2.015625 C 6.492188 -2.410156 6.609375 -2.851562 6.609375 -3.34375 C 6.609375 -3.820312 6.492188 -4.253906 6.265625 -4.640625 C 6.035156 -5.035156 5.722656 -5.34375 5.328125 -5.5625 C 4.941406 -5.789062 4.503906 -5.90625 4.015625 -5.90625 C 3.523438 -5.90625 3.082031 -5.789062 2.6875 -5.5625 C 2.289062 -5.34375 1.976562 -5.035156 1.75 -4.640625 C 1.519531 -4.253906 1.40625 -3.820312 1.40625 -3.34375 C 1.40625 -2.851562 1.519531 -2.410156 1.75 -2.015625 C 1.976562 -1.628906 2.289062 -1.320312 2.6875 -1.09375 C 3.082031 -0.875 3.523438 -0.765625 4.015625 -0.765625 Z M 4.015625 -0.765625 "/></g></g></g><g fill="#050a30" fill-opacity="1"><g transform="translate(100.660145, 279.918385)"><g><path d="M 3.765625 0.078125 C 2.878906 0.078125 2.1875 -0.175781 1.6875 -0.6875 C 1.1875 -1.195312 0.9375 -1.929688 0.9375 -2.890625 L 0.9375 -6.6875 L 1.90625 -6.6875 L 1.90625 -2.921875 C 1.90625 -1.484375 2.53125 -0.765625 3.78125 -0.765625 C 4.394531 -0.765625 4.863281 -0.941406 5.1875 -1.296875 C 5.507812 -1.648438 5.671875 -2.191406 5.671875 -2.921875 L 5.671875 -6.6875 L 6.59375 -6.6875 L 6.59375 -2.890625 C 6.59375 -1.921875 6.34375 -1.179688 5.84375 -0.671875 C 5.351562 -0.171875 4.660156 0.078125 3.765625 0.078125 Z M 3.765625 0.078125 "/></g></g></g><g fill="#050a30" fill-opacity="1"><g transform="translate(112.408153, 279.918385)"><g><path d="M 5.46875 0 L 4.03125 -2.046875 C 3.851562 -2.035156 3.710938 -2.03125 3.609375 -2.03125 L 1.953125 -2.03125 L 1.953125 0 L 1 0 L 1 -6.6875 L 3.609375 -6.6875 C 4.472656 -6.6875 5.148438 -6.476562 5.640625 -6.0625 C 6.140625 -5.644531 6.390625 -5.078125 6.390625 -4.359375 C 6.390625 -3.835938 6.257812 -3.394531 6 -3.03125 C 5.75 -2.664062 5.390625 -2.40625 4.921875 -2.25 L 6.515625 0 Z M 3.578125 -2.84375 C 4.179688 -2.84375 4.640625 -2.972656 4.953125 -3.234375 C 5.273438 -3.492188 5.4375 -3.867188 5.4375 -4.359375 C 5.4375 -4.835938 5.273438 -5.207031 4.953125 -5.46875 C 4.640625 -5.726562 4.179688 -5.859375 3.578125 -5.859375 L 1.953125 -5.859375 L 1.953125 -2.84375 Z M 3.578125 -2.84375 "/></g></g></g><g fill="#050a30" fill-opacity="1"><g transform="translate(123.545376, 279.918385)"><g/></g></g><g fill="#050a30" fill-opacity="1"><g transform="translate(130.311684, 279.918385)"><g><path d="M 2.953125 0.078125 C 2.453125 0.078125 1.96875 0 1.5 -0.15625 C 1.03125 -0.3125 0.660156 -0.515625 0.390625 -0.765625 L 0.75 -1.515625 C 1 -1.285156 1.320312 -1.097656 1.71875 -0.953125 C 2.113281 -0.804688 2.523438 -0.734375 2.953125 -0.734375 C 3.503906 -0.734375 3.914062 -0.828125 4.1875 -1.015625 C 4.457031 -1.203125 4.59375 -1.453125 4.59375 -1.765625 C 4.59375 -1.992188 4.519531 -2.179688 4.375 -2.328125 C 4.226562 -2.472656 4.046875 -2.582031 3.828125 -2.65625 C 3.609375 -2.726562 3.296875 -2.8125 2.890625 -2.90625 C 2.390625 -3.03125 1.984375 -3.148438 1.671875 -3.265625 C 1.367188 -3.390625 1.101562 -3.578125 0.875 -3.828125 C 0.65625 -4.078125 0.546875 -4.414062 0.546875 -4.84375 C 0.546875 -5.207031 0.640625 -5.53125 0.828125 -5.8125 C 1.015625 -6.101562 1.300781 -6.332031 1.6875 -6.5 C 2.070312 -6.675781 2.546875 -6.765625 3.109375 -6.765625 C 3.503906 -6.765625 3.890625 -6.710938 4.265625 -6.609375 C 4.648438 -6.503906 4.984375 -6.359375 5.265625 -6.171875 L 4.9375 -5.40625 C 4.664062 -5.582031 4.367188 -5.71875 4.046875 -5.8125 C 3.734375 -5.90625 3.421875 -5.953125 3.109375 -5.953125 C 2.566406 -5.953125 2.160156 -5.851562 1.890625 -5.65625 C 1.617188 -5.457031 1.484375 -5.203125 1.484375 -4.890625 C 1.484375 -4.660156 1.5625 -4.472656 1.71875 -4.328125 C 1.875 -4.179688 2.0625 -4.066406 2.28125 -3.984375 C 2.507812 -3.910156 2.816406 -3.832031 3.203125 -3.75 C 3.710938 -3.625 4.117188 -3.5 4.421875 -3.375 C 4.722656 -3.257812 4.984375 -3.078125 5.203125 -2.828125 C 5.421875 -2.578125 5.53125 -2.242188 5.53125 -1.828125 C 5.53125 -1.472656 5.4375 -1.148438 5.25 -0.859375 C 5.0625 -0.566406 4.769531 -0.335938 4.375 -0.171875 C 3.988281 -0.00390625 3.515625 0.078125 2.953125 0.078125 Z M 2.953125 0.078125 "/></g></g></g><g fill="#050a30" fill-opacity="1"><g transform="translate(140.4373, 279.918385)"><g><path d="M 6.75 -6.6875 L 6.75 0 L 5.796875 0 L 5.796875 -2.984375 L 1.953125 -2.984375 L 1.953125 0 L 1 0 L 1 -6.6875 L 1.953125 -6.6875 L 1.953125 -3.8125 L 5.796875 -3.8125 L 5.796875 -6.6875 Z M 6.75 -6.6875 "/></g></g></g><g fill="#050a30" fill-opacity="1"><g transform="translate(152.385717, 279.918385)"><g><path d="M 4.015625 0.078125 C 3.335938 0.078125 2.726562 -0.0664062 2.1875 -0.359375 C 1.65625 -0.660156 1.234375 -1.070312 0.921875 -1.59375 C 0.609375 -2.113281 0.453125 -2.695312 0.453125 -3.34375 C 0.453125 -3.988281 0.609375 -4.570312 0.921875 -5.09375 C 1.234375 -5.613281 1.65625 -6.019531 2.1875 -6.3125 C 2.726562 -6.613281 3.335938 -6.765625 4.015625 -6.765625 C 4.679688 -6.765625 5.285156 -6.613281 5.828125 -6.3125 C 6.367188 -6.019531 6.789062 -5.613281 7.09375 -5.09375 C 7.40625 -4.570312 7.5625 -3.988281 7.5625 -3.34375 C 7.5625 -2.695312 7.40625 -2.113281 7.09375 -1.59375 C 6.789062 -1.070312 6.367188 -0.660156 5.828125 -0.359375 C 5.285156 -0.0664062 4.679688 0.078125 4.015625 0.078125 Z M 4.015625 -0.765625 C 4.503906 -0.765625 4.941406 -0.875 5.328125 -1.09375 C 5.722656 -1.320312 6.035156 -1.628906 6.265625 -2.015625 C 6.492188 -2.410156 6.609375 -2.851562 6.609375 -3.34375 C 6.609375 -3.820312 6.492188 -4.253906 6.265625 -4.640625 C 6.035156 -5.035156 5.722656 -5.34375 5.328125 -5.5625 C 4.941406 -5.789062 4.503906 -5.90625 4.015625 -5.90625 C 3.523438 -5.90625 3.082031 -5.789062 2.6875 -5.5625 C 2.289062 -5.34375 1.976562 -5.035156 1.75 -4.640625 C 1.519531 -4.253906 1.40625 -3.820312 1.40625 -3.34375 C 1.40625 -2.851562 1.519531 -2.410156 1.75 -2.015625 C 1.976562 -1.628906 2.289062 -1.320312 2.6875 -1.09375 C 3.082031 -0.875 3.523438 -0.765625 4.015625 -0.765625 Z M 4.015625 -0.765625 "/></g></g></g><g fill="#050a30" fill-opacity="1"><g transform="translate(164.601361, 279.918385)"><g><path d="M 3.609375 -6.6875 C 4.472656 -6.6875 5.148438 -6.476562 5.640625 -6.0625 C 6.140625 -5.644531 6.390625 -5.078125 6.390625 -4.359375 C 6.390625 -3.628906 6.140625 -3.054688 5.640625 -2.640625 C 5.148438 -2.234375 4.472656 -2.03125 3.609375 -2.03125 L 1.953125 -2.03125 L 1.953125 0 L 1 0 L 1 -6.6875 Z M 3.578125 -2.859375 C 4.179688 -2.859375 4.640625 -2.984375 4.953125 -3.234375 C 5.273438 -3.492188 5.4375 -3.867188 5.4375 -4.359375 C 5.4375 -4.835938 5.273438 -5.207031 4.953125 -5.46875 C 4.640625 -5.726562 4.179688 -5.859375 3.578125 -5.859375 L 1.953125 -5.859375 L 1.953125 -2.859375 Z M 3.578125 -2.859375 "/></g></g></g><g fill="#050a30" fill-opacity="1"><g transform="translate(175.690868, 279.918385)"><g><path d="M 3.609375 -6.6875 C 4.472656 -6.6875 5.148438 -6.476562 5.640625 -6.0625 C 6.140625 -5.644531 6.390625 -5.078125 6.390625 -4.359375 C 6.390625 -3.628906 6.140625 -3.054688 5.640625 -2.640625 C 5.148438 -2.234375 4.472656 -2.03125 3.609375 -2.03125 L 1.953125 -2.03125 L 1.953125 0 L 1 0 L 1 -6.6875 Z M 3.578125 -2.859375 C 4.179688 -2.859375 4.640625 -2.984375 4.953125 -3.234375 C 5.273438 -3.492188 5.4375 -3.867188 5.4375 -4.359375 C 5.4375 -4.835938 5.273438 -5.207031 4.953125 -5.46875 C 4.640625 -5.726562 4.179688 -5.859375 3.578125 -5.859375 L 1.953125 -5.859375 L 1.953125 -2.859375 Z M 3.578125 -2.859375 "/></g></g></g><g fill="#050a30" fill-opacity="1"><g transform="translate(186.780381, 279.918385)"><g><path d="M 1 -6.6875 L 1.953125 -6.6875 L 1.953125 0 L 1 0 Z M 1 -6.6875 "/></g></g></g><g fill="#050a30" fill-opacity="1"><g transform="translate(193.937973, 279.918385)"><g><path d="M 6.75 -6.6875 L 6.75 0 L 5.96875 0 L 1.953125 -4.984375 L 1.953125 0 L 1 0 L 1 -6.6875 L 1.78125 -6.6875 L 5.796875 -1.703125 L 5.796875 -6.6875 Z M 6.75 -6.6875 "/></g></g></g><g fill="#050a30" fill-opacity="1"><g transform="translate(205.88639, 279.918385)"><g><path d="M 5.625 -3.375 L 6.546875 -3.375 L 6.546875 -0.765625 C 6.210938 -0.492188 5.828125 -0.285156 5.390625 -0.140625 C 4.953125 0.00390625 4.492188 0.078125 4.015625 0.078125 C 3.335938 0.078125 2.726562 -0.0664062 2.1875 -0.359375 C 1.65625 -0.660156 1.234375 -1.070312 0.921875 -1.59375 C 0.609375 -2.113281 0.453125 -2.695312 0.453125 -3.34375 C 0.453125 -3.988281 0.609375 -4.570312 0.921875 -5.09375 C 1.234375 -5.613281 1.660156 -6.019531 2.203125 -6.3125 C 2.742188 -6.613281 3.351562 -6.765625 4.03125 -6.765625 C 4.570312 -6.765625 5.054688 -6.675781 5.484375 -6.5 C 5.921875 -6.320312 6.296875 -6.066406 6.609375 -5.734375 L 6.015625 -5.140625 C 5.484375 -5.648438 4.835938 -5.90625 4.078125 -5.90625 C 3.566406 -5.90625 3.109375 -5.796875 2.703125 -5.578125 C 2.296875 -5.359375 1.976562 -5.050781 1.75 -4.65625 C 1.519531 -4.269531 1.40625 -3.832031 1.40625 -3.34375 C 1.40625 -2.851562 1.519531 -2.410156 1.75 -2.015625 C 1.976562 -1.628906 2.296875 -1.320312 2.703125 -1.09375 C 3.109375 -0.875 3.5625 -0.765625 4.0625 -0.765625 C 4.664062 -0.765625 5.1875 -0.910156 5.625 -1.203125 Z M 5.625 -3.375 "/></g></g></g><g fill="#050a30" fill-opacity="1"><g transform="translate(217.453073, 279.918385)"><g/></g></g><g fill="#050a30" fill-opacity="1"><g transform="translate(224.219381, 279.918385)"><g><path d="M 3.609375 -6.6875 C 4.472656 -6.6875 5.148438 -6.476562 5.640625 -6.0625 C 6.140625 -5.644531 6.390625 -5.078125 6.390625 -4.359375 C 6.390625 -3.628906 6.140625 -3.054688 5.640625 -2.640625 C 5.148438 -2.234375 4.472656 -2.03125 3.609375 -2.03125 L 1.953125 -2.03125 L 1.953125 0 L 1 0 L 1 -6.6875 Z M 3.578125 -2.859375 C 4.179688 -2.859375 4.640625 -2.984375 4.953125 -3.234375 C 5.273438 -3.492188 5.4375 -3.867188 5.4375 -4.359375 C 5.4375 -4.835938 5.273438 -5.207031 4.953125 -5.46875 C 4.640625 -5.726562 4.179688 -5.859375 3.578125 -5.859375 L 1.953125 -5.859375 L 1.953125 -2.859375 Z M 3.578125 -2.859375 "/></g></g></g><g fill="#050a30" fill-opacity="1"><g transform="translate(235.308888, 279.918385)"><g><path d="M 5.265625 -1.671875 L 1.703125 -1.671875 L 0.96875 0 L -0.015625 0 L 3.015625 -6.6875 L 3.96875 -6.6875 L 7 0 L 6 0 Z M 4.921875 -2.4375 L 3.484375 -5.703125 L 2.046875 -2.4375 Z M 4.921875 -2.4375 "/></g></g></g><g fill="#050a30" fill-opacity="1"><g transform="translate(246.493825, 279.918385)"><g><path d="M 5.46875 0 L 4.03125 -2.046875 C 3.851562 -2.035156 3.710938 -2.03125 3.609375 -2.03125 L 1.953125 -2.03125 L 1.953125 0 L 1 0 L 1 -6.6875 L 3.609375 -6.6875 C 4.472656 -6.6875 5.148438 -6.476562 5.640625 -6.0625 C 6.140625 -5.644531 6.390625 -5.078125 6.390625 -4.359375 C 6.390625 -3.835938 6.257812 -3.394531 6 -3.03125 C 5.75 -2.664062 5.390625 -2.40625 4.921875 -2.25 L 6.515625 0 Z M 3.578125 -2.84375 C 4.179688 -2.84375 4.640625 -2.972656 4.953125 -3.234375 C 5.273438 -3.492188 5.4375 -3.867188 5.4375 -4.359375 C 5.4375 -4.835938 5.273438 -5.207031 4.953125 -5.46875 C 4.640625 -5.726562 4.179688 -5.859375 3.578125 -5.859375 L 1.953125 -5.859375 L 1.953125 -2.84375 Z M 3.578125 -2.84375 "/></g></g></g><g fill="#050a30" fill-opacity="1"><g transform="translate(257.631048, 279.918385)"><g><path d="M 2.328125 -5.859375 L 0.03125 -5.859375 L 0.03125 -6.6875 L 5.5625 -6.6875 L 5.5625 -5.859375 L 3.28125 -5.859375 L 3.28125 0 L 2.328125 0 Z M 2.328125 -5.859375 "/></g></g></g><g fill="#050a30" fill-opacity="1"><g transform="translate(267.432184, 279.918385)"><g><path d="M 6.75 -6.6875 L 6.75 0 L 5.96875 0 L 1.953125 -4.984375 L 1.953125 0 L 1 0 L 1 -6.6875 L 1.78125 -6.6875 L 5.796875 -1.703125 L 5.796875 -6.6875 Z M 6.75 -6.6875 "/></g></g></g><g fill="#050a30" fill-opacity="1"><g transform="translate(279.380601, 279.918385)"><g><path d="M 5.859375 -0.828125 L 5.859375 0 L 1 0 L 1 -6.6875 L 5.71875 -6.6875 L 5.71875 -5.859375 L 1.953125 -5.859375 L 1.953125 -3.796875 L 5.3125 -3.796875 L 5.3125 -2.984375 L 1.953125 -2.984375 L 1.953125 -0.828125 Z M 5.859375 -0.828125 "/></g></g></g><g fill="#050a30" fill-opacity="1"><g transform="translate(289.973855, 279.918385)"><g><path d="M 5.46875 0 L 4.03125 -2.046875 C 3.851562 -2.035156 3.710938 -2.03125 3.609375 -2.03125 L 1.953125 -2.03125 L 1.953125 0 L 1 0 L 1 -6.6875 L 3.609375 -6.6875 C 4.472656 -6.6875 5.148438 -6.476562 5.640625 -6.0625 C 6.140625 -5.644531 6.390625 -5.078125 6.390625 -4.359375 C 6.390625 -3.835938 6.257812 -3.394531 6 -3.03125 C 5.75 -2.664062 5.390625 -2.40625 4.921875 -2.25 L 6.515625 0 Z M 3.578125 -2.84375 C 4.179688 -2.84375 4.640625 -2.972656 4.953125 -3.234375 C 5.273438 -3.492188 5.4375 -3.867188 5.4375 -4.359375 C 5.4375 -4.835938 5.273438 -5.207031 4.953125 -5.46875 C 4.640625 -5.726562 4.179688 -5.859375 3.578125 -5.859375 L 1.953125 -5.859375 L 1.953125 -2.84375 Z M 3.578125 -2.84375 "/></g></g></g></svg>